<svg id="visual" viewBox="0 0 1920 600" width="1920" height="600" xmlns="http://www.w3.org/2000/svg" xmlns:xlink="http://www.w3.org/1999/xlink" version="1.1"><path d="M0 530L83 530L83 530L167 530L167 548L250 548L250 530L334 530L334 508L417 508L417 535L501 535L501 492L584 492L584 508L668 508L668 496L751 496L751 555L835 555L835 578L918 578L918 532L1002 532L1002 504L1085 504L1085 510L1169 510L1169 587L1252 587L1252 549L1336 549L1336 543L1419 543L1419 531L1503 531L1503 575L1586 575L1586 499L1670 499L1670 534L1753 534L1753 583L1837 583L1837 540L1920 540L1920 511L1920 601L1920 601L1837 601L1837 601L1753 601L1753 601L1670 601L1670 601L1586 601L1586 601L1503 601L1503 601L1419 601L1419 601L1336 601L1336 601L1252 601L1252 601L1169 601L1169 601L1085 601L1085 601L1002 601L1002 601L918 601L918 601L835 601L835 601L751 601L751 601L668 601L668 601L584 601L584 601L501 601L501 601L417 601L417 601L334 601L334 601L250 601L250 601L167 601L167 601L83 601L83 601L0 601Z" fill="#020F09"></path></svg>