<?xml version="1.0" standalone="no"?><svg xmlns="http://www.w3.org/2000/svg" viewBox="0 0 1440 320"><path fill="#020F09" fill-opacity="1" d="M0,224L0,32L51.4,32L51.4,256L102.9,256L102.9,160L154.3,160L154.3,224L205.7,224L205.7,96L257.1,96L257.1,320L308.6,320L308.6,96L360,96L360,0L411.4,0L411.4,160L462.9,160L462.9,128L514.3,128L514.3,96L565.7,96L565.7,224L617.1,224L617.1,128L668.6,128L668.6,224L720,224L720,96L771.4,96L771.4,160L822.9,160L822.9,224L874.3,224L874.3,192L925.7,192L925.7,96L977.1,96L977.1,128L1028.6,128L1028.6,160L1080,160L1080,192L1131.4,192L1131.4,128L1182.9,128L1182.9,32L1234.3,32L1234.3,0L1285.7,0L1285.7,160L1337.1,160L1337.1,0L1388.6,0L1388.6,224L1440,224L1440,320L1388.6,320L1388.6,320L1337.1,320L1337.1,320L1285.7,320L1285.7,320L1234.3,320L1234.3,320L1182.9,320L1182.9,320L1131.4,320L1131.4,320L1080,320L1080,320L1028.6,320L1028.6,320L977.1,320L977.1,320L925.7,320L925.7,320L874.3,320L874.3,320L822.9,320L822.9,320L771.4,320L771.4,320L720,320L720,320L668.6,320L668.6,320L617.1,320L617.1,320L565.7,320L565.7,320L514.3,320L514.3,320L462.9,320L462.9,320L411.4,320L411.4,320L360,320L360,320L308.6,320L308.6,320L257.1,320L257.1,320L205.7,320L205.7,320L154.3,320L154.3,320L102.9,320L102.9,320L51.4,320L51.4,320L0,320L0,320Z"></path></svg>